<svg id="Capa_1" enable-background="new 0 0 512 512" height="512" viewBox="0 0 512 512" width="512" xmlns="http://www.w3.org/2000/svg"><g><path d="m289.445 157.307c4.15 0 7.515-3.364 7.515-7.515v-12.028c0-4.15-3.365-7.515-7.515-7.515s-7.515 3.365-7.515 7.515v12.028c0 4.151 3.364 7.515 7.515 7.515z"/><path d="m223.648 157.307c4.15 0 7.515-3.364 7.515-7.515v-12.028c0-4.15-3.365-7.515-7.515-7.515s-7.515 3.365-7.515 7.515v12.028c0 4.151 3.365 7.515 7.515 7.515z"/><path d="m230.391 189.038c2.314 5.534 10.385 14.804 26.155 14.804s23.841-9.269 26.155-14.804c.43-.948.676-1.997.676-3.105 0-4.157-3.37-7.528-7.528-7.528-3.137 0-5.829 1.916-6.96 4.644 0-.001 0 0 0-.001-.283.587-3.031 5.735-12.344 5.735s-12.061-5.148-12.344-5.735c0 .001.001 0 0 .001-1.131-2.728-3.823-4.644-6.96-4.644-4.157 0-7.528 3.37-7.528 7.528.002 1.108.248 2.157.678 3.105z"/><path d="m115.638 467.257c4.15 0 7.515-3.364 7.515-7.515v-82.885c0-4.15-3.364-7.515-7.515-7.515h-17.716c-4.15 0-7.515 3.365-7.515 7.515s3.365 7.515 7.515 7.515h10.202v75.371c-.001 4.149 3.364 7.514 7.514 7.514z"/><path d="m138.341 435.773c0 17.36 14.123 31.483 31.483 31.483s31.483-14.123 31.483-31.483c0-10.264-4.939-19.395-12.564-25.146 3.777-4.379 6.069-10.074 6.069-16.297 0-13.779-11.21-24.989-24.989-24.989s-24.989 11.21-24.989 24.989c0 6.223 2.292 11.918 6.069 16.297-7.623 5.751-12.562 14.882-12.562 25.146zm31.483 16.455c-9.072 0-16.453-7.381-16.453-16.454s7.381-16.454 16.453-16.454c9.073 0 16.454 7.381 16.454 16.454s-7.381 16.454-16.454 16.454zm-9.959-57.897c0-5.492 4.468-9.959 9.959-9.959s9.96 4.468 9.96 9.959-4.468 9.959-9.96 9.959-9.959-4.468-9.959-9.959z"/><path d="m388.73 466.921c.223 0 .449-.002.672-.007 17.138-.345 31.258-14.015 32.145-31.12.473-9.108-2.718-17.759-8.986-24.361-6.18-6.509-14.866-10.242-23.833-10.242-3.01 0-5.567.168-7.848.488l3.135-18.921h24.77c4.15 0 7.515-3.364 7.515-7.515s-3.365-7.515-7.515-7.515h-31.142c-3.676 0-6.813 2.66-7.413 6.287l-6.169 37.236c-.463 2.796.699 5.609 2.985 7.284 2.287 1.675 5.334 1.914 7.86.629.065-.033.319-.159.727-.342 3.493-1.572 6.291-2.602 13.095-2.602 4.936 0 9.529 1.975 12.933 5.561 3.402 3.583 5.134 8.283 4.877 13.234-.481 9.274-8.141 16.685-17.439 16.873-9.064.185-16.79-6.411-18.035-15.334-.115-.822-.173-1.663-.173-2.499 0-4.15-3.365-7.515-7.515-7.515s-7.515 3.365-7.515 7.515c0 1.527.107 3.065.317 4.574 2.267 16.24 16.197 28.293 32.552 28.292z"/><path d="m340.741 396.116c0-15.838-12.885-28.724-28.724-28.724-13.695 0-25.548 9.742-28.184 23.164-.8 4.072 1.853 8.023 5.925 8.822 4.071.797 8.022-1.853 8.822-5.925 1.256-6.392 6.907-11.032 13.437-11.032 7.551 0 13.694 6.143 13.694 13.694s-6.143 13.694-13.694 13.694c-4.15 0-7.515 3.365-7.515 7.515s3.365 7.515 7.515 7.515c7.551 0 13.694 6.143 13.694 13.694s-6.143 13.694-13.694 13.694c-6.794 0-12.624-5.062-13.562-11.776-.088-.628-.132-1.273-.132-1.918 0-4.15-3.365-7.515-7.515-7.515s-7.515 3.365-7.515 7.515c0 1.337.093 2.682.276 3.996 1.968 14.097 14.197 24.727 28.447 24.727 15.838 0 28.724-12.885 28.724-28.724 0-8.391-3.618-15.953-9.375-21.209 5.758-5.255 9.376-12.816 9.376-21.207z"/><path d="m229.583 409.81c-4.15 0-7.515 3.365-7.515 7.515s3.365 7.515 7.515 7.515h24.231c4.15 0 7.515-3.364 7.515-7.515s-3.365-7.515-7.515-7.515z"/><path d="m434.198 322.648h-53.958c-13.303-40.031-35.689-64.373-52.484-77.888-8.328-6.702-16.089-11.455-22.267-14.711 17.468-13.09 29.526-33.002 32.237-55.743 1.327.164 2.669.254 4.028.254 17.848 0 32.368-14.52 32.368-32.368 0-10.322-4.862-19.523-12.41-25.454 5.497-16.399 6.431-34.286 2.555-51.031-.936-4.044-4.973-6.563-9.015-5.627-4.044.936-6.563 4.972-5.627 9.015 3.133 13.538 2.516 27.974-1.663 41.333-2.01-.392-4.085-.604-6.209-.604-3.676 0-7.243.608-10.652 1.801-21.065-11.347-43.974-43.668-44.211-44.007-1.192-1.696-3.031-2.824-5.084-3.118-2.054-.296-4.134.273-5.754 1.566-.51.407-50.685 40.145-92.667 46.089-3.826-1.541-7.865-2.332-12.046-2.332-2.306 0-4.556.247-6.727.708-2.488-27.371 3.259-49.388 17.144-65.536 18.997-22.094 51.09-29.966 74.79-29.966 23.388 0 36.334 12.98 36.841 13.5 1.727 1.812 4.277 2.638 6.746 2.217.171-.029 17.242-2.805 31.489 7.666 2.404 1.767 4.686 3.971 6.785 6.551 2.618 3.22 7.352 3.707 10.572 1.089s3.707-7.351 1.089-10.571c-2.902-3.569-6.113-6.657-9.544-9.179-15.021-11.04-31.762-11.336-39.173-10.795-6.098-5.057-21.514-15.507-44.804-15.507-13.119 0-58.105 2.538-86.186 35.197-17.651 20.528-24.395 48.253-20.088 82.452-6.911 5.941-11.301 14.736-11.301 24.543 0 17.848 14.52 32.368 32.368 32.368 1.358 0 2.701-.09 4.027-.254 2.711 22.739 14.768 42.65 32.235 55.74-8.849 4.662-20.944 12.401-33.316 24.548-2.961 2.908-3.005 7.665-.097 10.627 2.909 2.963 7.667 3.004 10.627.097 13.685-13.436 27.03-20.834 34.625-24.346l12.88 32.641-8.953 49.034h-74.615c4.669-12.861 10.644-24.719 17.824-35.357 2.322-3.44 1.416-8.111-2.025-10.432-3.44-2.322-8.11-1.415-10.432 2.024-8.819 13.066-15.945 27.773-21.255 43.765h-55.063c-20.718 0-37.573 16.855-37.573 37.573v114.205c0 20.718 16.855 37.573 37.573 37.573h259.399c4.15 0 7.515-3.365 7.515-7.515s-3.365-7.515-7.515-7.515h-259.399c-12.431 0-22.544-10.113-22.544-22.544v-114.202c0-12.431 10.113-22.544 22.544-22.544h356.396c12.431 0 22.544 10.113 22.544 22.544v114.205c0 12.431-10.113 22.544-22.544 22.544h-66.939c-4.15 0-7.515 3.365-7.515 7.515s3.364 7.515 7.515 7.515h66.939c20.718 0 37.573-16.855 37.573-37.573v-114.206c0-20.719-16.855-37.574-37.573-37.574zm-166.315-57.31h-22.672l-8.453-21.422c6.34 1.582 12.965 2.434 19.788 2.434s13.449-.853 19.789-2.434zm91.209-123.146c0 9.561-7.778 17.339-17.339 17.339-1.167 0-2.308-.134-3.428-.359v-33.96c1.12-.225 2.261-.359 3.428-.359 9.561.001 17.339 7.779 17.339 17.339zm-205.091 0c0-9.561 7.778-17.339 17.339-17.339 1.167 0 2.308.134 3.428.359v33.96c-1.119.225-2.261.359-3.428.359-9.561 0-17.339-7.778-17.339-17.339zm35.796 22.38v-38.238c18.231-3.37 39.195-12.076 62.437-25.94 11.659-6.955 21.188-13.621 27.002-17.887 8.19 10.612 25.979 31.885 44.06 41.983v40.082c0 36.806-29.944 66.749-66.749 66.749-36.807 0-66.75-29.943-66.75-66.749zm48.847 158.076 7.72-42.281h20.366l7.72 42.281zm51.082 0-8.952-49.033 12.883-32.652c14.775 6.826 51.366 28.475 70.685 81.685z"/></g></svg>