<svg id="Capa_1" enable-background="new 0 0 502.254 502.254" height="512" viewBox="0 0 502.254 502.254" width="512" xmlns="http://www.w3.org/2000/svg"><g><path d="m476.904 426.922c-.882 12.974-6.992 25.35-16.583 34.008-15.863 15.19-35.901 12.959-55.945 12.126-74.317-5.034-149.813-4.963-224.089 1.23-30.732 1.854-61.303 3.503-92.119 3.87-7.87-.047-20.913 1.37-28.544-1.102-18.848-5.048-36.995-21.039-36.836-41.916.146-28.197.031-65.908.12-93.886.944-42.046-1.591-84.094-1.164-126.036 20.863 31.238 60.135 48.222 90.523 69.17 6.459 3.758 12.907 7.433 19.832 10.618-.779 3.547-1.69 7.07-2.686 10.815-17.391 54.388 36.541 47.162 26.42 18.165-4.463-9.893-3.958-21.698-6.78-32.463 5.709-5.038 14.31-6.33 21.017-9.5 58.845-20.449 132.017-23.893 188.122 6.547-3.095 14.226-7.296 28.973-7.649 43.386 3.693 19.589 33.523 14.125 30.002-5.516-1.726-9.812-3.879-20.684-5.848-30.515-.348-1.095-.59-2.315-.817-3.573 5.37-3.383 10.746-10.17 15.32-12.427 10.694-8.155 21.854-15.687 33.677-22.03 15.996-8.97 33.169-18.963 46.63-32.067-.642 24.516-1.191 49.094.332 73.457 2.068 9.522-1.758 35.587 10.996 36.075 4.695.155 8.623-3.534 8.764-8.228 1.174-53.982 10.333-108.415 10.42-162.46-5.122-98.615-95.579-95.138-174.15-86.337 1.326-8.876 2.761-17.864 1.938-27.341-5.57-50.276-56.337-54.675-96.829-49.16-2.375.229-15.751 1.456-17.879 1.601-27.476-.946-46.567 24.189-46.32 49.745.209 7.503-.044 22.273 3.971 31.161-18.779-.306-37.466-.78-55.811-1.483-32.749-.978-74.139-.584-94.801 29.636-3.999 5.969-11.676 22.729-10.99 33.572-.003.031-.011.06-.014.091-3.49 27.546-4.692 55.255-4.896 82.714.359 47.884.578 95.265-.664 142.92-.761 12.903-.663 47.95-1.3 61.317-.306 8.626 1.178 17.186 4.387 25.213 10.516 25.124 38.564 42.625 65.807 43.021 25.622.288 51.868 1.11 77.515.87 50.851-.153 102.977-3.393 153.801-2.952 34.946-.431 86.56 2.097 121.493.46 37.98.039 71.801-34.603 68.522-72.745-.594-10.178-16.25-10.326-16.895-.051zm-289.045-342.543c4.375-17.409 3.037-46.754 23.603-51.273 9.947-1.439 20.194-4.135 29.931-6.62 26.093-8.41 65.284-7.091 68.968 26.894 2.021 6.362-1.867 18.212-1.873 26.976-14.773 1.755-28.828 3.438-41.456 4.345-25.973.154-52.612.162-79.218-.132.014-.064.033-.125.045-.19zm-159.418 49.947c6.213-24.04 32.547-32.62 55.122-33.353 19.903-1.441 41.669 1.23 61.741 1.663 40.233.848 82.621 3.086 122.647 3.415 55.355.114 137.139-20.809 183.405 13.896 18.565 16.294 19.976 43.261 18.958 66.372-.024 3.549-.074 7.104-.133 10.662-19.431 34.322-72.035 46.856-101.378 72.205-52.589-33.398-120.375-42.133-179.378-21.765-7.144 2.428-28.262 11.377-43.006 21.302-.892-.547-1.874-1.037-2.965-1.448-12.288-4.483-24.477-10.661-36.004-16.949-12.265-6.415-24.789-11.699-36.708-18.537-17.089-9.652-32.624-20.58-42.192-37.434-2.307-4.094-4.21-8.456-5.687-13.026.464-7.798 1.088-15.592 1.919-23.381.377-2.634 1.089-6.304 1.047-9.747 1.113-4.542 1.043-10.157 2.612-13.875z"/></g></svg>