<svg id="age" enable-background="new 0 0 300 300" height="512" viewBox="0 0 300 300" width="512" xmlns="http://www.w3.org/2000/svg"><g><path d="m82 59.999c6.617 0 12-5.383 12-12s-5.383-12-12-12-12 5.383-12 12 5.383 12 12 12zm0-16c2.205 0 4 1.795 4 4s-1.795 4-4 4-4-1.795-4-4 1.795-4 4-4z"/><path d="m67.172 126.827c.781.781 1.805 1.172 2.828 1.172s2.047-.391 2.828-1.172l3.172-3.172 3.172 3.172c.781.781 1.805 1.172 2.828 1.172s2.047-.391 2.828-1.172c1.562-1.562 1.562-4.094 0-5.656l-3.172-3.172 3.172-3.172c1.562-1.562 1.562-4.094 0-5.656s-4.094-1.562-5.656 0l-3.172 3.171-3.172-3.172c-1.562-1.562-4.094-1.562-5.656 0s-1.562 4.094 0 5.656l3.172 3.172-3.172 3.172c-1.563 1.563-1.563 4.094 0 5.657z"/><path d="m59.532 89.785c2.362 0 4.276-1.915 4.276-4.276s-1.915-4.277-4.276-4.277-4.277 1.915-4.277 4.277 1.915 4.276 4.277 4.276z"/><path d="m110 243.999h-4c-2.209 0-4 1.791-4 4s1.791 4 4 4v4h-8v-16h8c2.209 0 4-1.791 4-4s-1.791-4-4-4h-12c-2.209 0-4 1.791-4 4v24c0 2.209 1.791 4 4 4h16c2.209 0 4-1.791 4-4v-12c0-2.209-1.791-4-4-4z"/><path d="m77.52 231.999h-8c-1.955 0-3.625 1.414-3.945 3.342l-4 24c-.363 2.18 1.109 4.24 3.287 4.604 2.205.373 4.24-1.111 4.604-3.287l.725-4.35h6.659l.725 4.35c.326 1.955 2.02 3.342 3.941 3.342.217 0 .439-.018.662-.055 2.178-.363 3.65-2.424 3.287-4.604l-4-24c-.32-1.928-1.99-3.342-3.945-3.342zm-5.997 16.308 1.385-8.309h1.223l1.385 8.309z"/><path d="m158 239.999c2.209 0 4-1.791 4-4s-1.791-4-4-4h-12c-2.209 0-4 1.791-4 4v12c0 2.209 1.791 4 4 4h8v4h-8c-2.209 0-4 1.791-4 4s1.791 4 4 4h12c2.209 0 4-1.791 4-4v-12c0-2.209-1.791-4-4-4h-8v-4z"/><path d="m134 239.999c2.209 0 4-1.791 4-4s-1.791-4-4-4h-12c-2.209 0-4 1.791-4 4v24c0 2.209 1.791 4 4 4h12c2.209 0 4-1.791 4-4s-1.791-4-4-4h-8v-4h8c2.209 0 4-1.791 4-4s-1.791-4-4-4h-8v-4z"/><path d="m208 227.999h-8c-5.514 0-10 4.486-10 10 0 2.26.782 4.323 2.051 6-1.269 1.677-2.051 3.74-2.051 6v4c0 5.514 4.486 10 10 10h8c5.514 0 10-4.486 10-10v-4c0-2.26-.782-4.323-2.051-6 1.269-1.677 2.051-3.74 2.051-6 0-5.514-4.486-10-10-10zm-8 8h8c1.104 0 2 .896 2 2s-.896 2-2 2h-8c-1.104 0-2-.896-2-2s.896-2 2-2zm10 18c0 1.104-.896 2-2 2h-8c-1.104 0-2-.896-2-2v-4c0-1.104.896-2 2-2h8c1.104 0 2 .896 2 2z"/><path d="m242 239.999h-4v-4c0-2.209-1.791-4-4-4s-4 1.791-4 4v4h-4c-2.209 0-4 1.791-4 4s1.791 4 4 4h4v4c0 2.209 1.791 4 4 4s4-1.791 4-4v-4h4c2.209 0 4-1.791 4-4s-1.791-4-4-4z"/><path d="m227.914 60.347c2.362 0 4.277-1.915 4.277-4.277s-1.915-4.276-4.277-4.276-4.276 1.915-4.276 4.276 1.914 4.277 4.276 4.277z"/><path d="m227.1 105.194c-1.562 1.562-1.562 4.094 0 5.656l2.829 2.829-2.829 2.829c-1.562 1.562-1.562 4.094 0 5.656.781.781 1.805 1.172 2.828 1.172s2.047-.391 2.828-1.172l2.829-2.829 2.829 2.829c.781.781 1.805 1.172 2.828 1.172s2.047-.391 2.828-1.172c1.562-1.562 1.562-4.094 0-5.656l-2.829-2.829 2.829-2.829c1.562-1.562 1.562-4.094 0-5.656s-4.094-1.562-5.656 0l-2.829 2.829-2.829-2.829c-1.563-1.563-4.094-1.563-5.656 0z"/><path d="m163.146 126.411c.914-1.211 1.066-2.836.389-4.193-.676-1.359-2.062-2.219-3.58-2.219h-15.91c-1.518 0-2.904.859-3.58 2.219-.678 1.357-.525 2.982.389 4.193 2.686 3.551 6.748 5.588 11.146 5.588s8.461-2.037 11.146-5.588z"/><path d="m136 97.469c-2.501 0-4.53 2.028-4.53 4.53 0 2.501 2.028 4.529 4.53 4.529s4.53-2.028 4.53-4.529c0-2.502-2.029-4.53-4.53-4.53z"/><path d="m168 106.528c2.501 0 4.53-2.028 4.53-4.529 0-2.502-2.028-4.53-4.53-4.53s-4.53 2.028-4.53 4.53c0 2.501 2.029 4.529 4.53 4.529z"/><path d="m254 211.999h-48v-40.492c0-12.963-10.545-23.508-23.508-23.508h-12.492v-2.421c14.038-5.001 24-17.257 24-31.579v-10c2.209 0 4-1.791 4-4v-24c0-7.443-5.107-13.715-12.002-15.494-.168-9.129-7.646-16.506-16.814-16.506h-42.367c-9.273 0-16.816 7.543-16.816 16.816v19.184c0 2.209 1.791 4 4 4h4v30c0 14.322 9.962 26.578 24 31.579v2.421h-12.492c-12.963 0-23.508 10.545-23.508 23.508v40.492h-60.001c-2.209 0-4 1.791-4 4s1.791 4 4 4h208c2.209 0 4-1.791 4-4s-1.791-4-4-4zm-136-151.184c0-4.861 3.955-8.816 8.816-8.816h42.367c4.861 0 8.816 3.955 8.816 8.816v3.184c0 2.209 1.791 4 4 4 4.412 0 8 3.588 8 8v18.926c-2.389-1.385-4-3.971-4-6.926v-8c0-2.209-1.791-4-4-4h-64v-15.184zm8 53.184v-30h52v4c0 5.895 3.241 10.999 8 13.774v12.226c0 14.336-13.457 26-30 26s-30-11.664-30-26zm30 34c2.046 0 4.041-.186 6-.466v4.466c0 2.209 1.791 4 4 4h3.798c-.981 6.767-6.764 12-13.798 12s-12.817-5.233-13.798-12h3.798c2.209 0 4-1.791 4-4v-4.466c1.959.28 3.954.466 6 .466zm26 36c-2.209 0-4 1.791-4 4v24h-48v-24c0-2.209-1.791-4-4-4s-4 1.791-4 4v24h-8v-40.492c0-8.551 6.957-15.508 15.508-15.508h4.594c1.015 11.196 10.443 20 21.899 20s20.884-8.804 21.899-20h4.594c8.551 0 15.508 6.957 15.508 15.508v40.492h-12v-24c-.002-2.209-1.793-4-4.002-4z"/></g></svg>