<svg height="480pt" viewBox="-44 0 480 480.09484" width="480pt" xmlns="http://www.w3.org/2000/svg"><path d="m385.105469 336.019531h-40v-20c0-4.417969-3.582031-8-8-8s-8 3.582031-8 8v20h-176v-176h48v56c.007812 2.949219 1.636719 5.652344 4.238281 7.039063 2.546875 1.308594 5.597656 1.15625 8-.398438l27.761719-18.320312 27.601562 18.320312c2.449219 1.613282 5.589844 1.753906 8.175781.371094 2.585938-1.386719 4.207032-4.078125 4.222657-7.011719v-32c0-4.417969-3.582031-8-8-8s-8 3.582031-8 8v17.039063l-19.601563-13.039063c-2.667968-1.757812-6.128906-1.757812-8.796875 0l-19.601562 13.039063v-41.039063h112v112c0 4.417969 3.582031 8 8 8s8-3.582031 8-8v-120c0-4.417969-3.582031-8-8-8h-56v-120c0-4.417969-3.582031-8-8-8h-128c-4.417969 0-8 3.582031-8 8v37.917969c-1.269531-.972656-2.605469-1.851562-4-2.640625l-97.039063-56.078125c-5.515625-3.1875-12.074218-4.050781-18.226562-2.398438-6.152344 1.648438-11.394532 5.679688-14.574219 11.199219-3.1875 5.515625-4.050781 12.070313-2.398437 18.222657 1.652343 6.152343 5.679687 11.394531 11.199218 14.574218l93.039063 53.683594v93.519531c0 4.417969 3.582031 8 8 8s8-3.582031 8-8v-93.519531c-.003907-5.710938-3.054688-10.988281-8-13.839844l-93.039063-53.683594c-1.855468-1.058593-3.210937-2.816406-3.761718-4.878906-.871094-3.140625.25-6.496094 2.832031-8.484375 2.585937-1.988281 6.117187-2.207031 8.929687-.554687l97.039063 56c7.429687 4.289062 12.003906 12.21875 12 20.800781v279.597656c-5.0625-2.390625-10.457031-4.007812-16-4.796875v-142.640625c0-4.417969-3.582031-8-8-8s-8 3.582031-8 8v142.640625c-28.585938 4.082032-49.378907 29.238282-48.015625 58.082032 1.367187 28.847656 24.445312 51.925781 53.289062 53.289062 28.847656 1.367188 54-19.425781 58.085938-48.011719h168.640625c7.78125-.023437 15.066406-3.8125 19.546875-10.171875 4.484375-6.359375 5.605468-14.496094 3.011718-21.828125h25.441407c4.417969 0 8-3.582031 8-8v-48c0-4.417969-3.582031-8-8-8zm-56 16v32h-32v-32zm-80 32v-32h32v32zm-16-32v32h-32v-32zm-48 0v32h-32v-32zm40-320v32h-32v-32zm-72 0h24v40c0 4.417969 3.582031 8 8 8h48c4.417969 0 8-3.582031 8-8v-40h24v112h-112zm-40 432c-22.089844 0-40-17.910156-40-40 0-22.09375 17.910156-40 40-40 22.089843 0 40 17.90625 40 40 0 22.089844-17.910157 40-40 40zm232-56c0 4.417969-3.582031 8-8 8h-168.640625c-.789063-5.542969-2.410156-10.9375-4.800782-16h173.441407c4.417969 0 8 3.582031 8 8zm32-24h-32v-32h32zm0 0"/><path d="m297.105469 256.019531c0-4.417969-3.582031-8-8-8h-96c-4.417969 0-8 3.582031-8 8s3.582031 8 8 8h96c4.417969 0 8-3.582031 8-8zm0 0"/><path d="m217.105469 288.019531c-4.417969 0-8 3.582031-8 8s3.582031 8 8 8h48c4.417969 0 8-3.582031 8-8s-3.582031-8-8-8zm0 0"/><path d="m113.105469 400.019531c-13.253907 0-24 10.742188-24 24 0 13.253907 10.746093 24 24 24 13.253906 0 24-10.746093 24-24 0-13.257812-10.746094-24-24-24zm0 32c-4.417969 0-8-3.582031-8-8s3.582031-8 8-8 8 3.582031 8 8-3.582031 8-8 8zm0 0"/><path d="m185.105469 112.019531h48c4.417969 0 8-3.582031 8-8s-3.582031-8-8-8h-48c-4.417969 0-8 3.582031-8 8s3.582031 8 8 8zm0 0"/></svg>