<svg id="Capa_1" enable-background="new 0 0 512 512" height="512" viewBox="0 0 512 512" width="512" xmlns="http://www.w3.org/2000/svg"><g><g><path d="m123.79 97.046c-4.812 2.711-6.515 8.81-3.805 13.621 2.672 4.743 8.875 6.478 13.621 3.805.511-.288 51.847-28.757 121.286-28.757 70.366 0 120.704 28.423 121.204 28.71 4.782 2.754 10.891 1.113 13.648-3.665 2.763-4.782 1.124-10.898-3.658-13.661-2.219-1.281-55.218-31.384-131.194-31.384-74.63 0-128.831 30.052-131.102 31.331z"/><path d="m502 477.47h-35.57v-239.258l5.969 3.276c7.503 4.116 16.603-2.95 14.505-11.223l-12.278-48.455 32.091-17.161c6.919-3.7 6.899-13.985-.038-17.657l-62.907-33.294 8.648-30.099c1.16-4.04-.328-8.373-3.727-10.847-.368-.269-9.216-6.676-25.028-15.345-38.526-21.121-80.184-34.625-123.815-40.139-5.477-.69-10.482 3.188-11.175 8.667-.692 5.479 3.188 10.482 8.667 11.175 41.129 5.197 80.396 17.927 116.708 37.834 7.453 4.086 13.245 7.634 17.136 10.133l-21.55 74.999c-7.641-4.818-16.002-9.417-24.988-13.741-39.815-19.161-84.287-29.289-128.606-29.289s-88.791 10.128-128.607 29.289c-9.058 4.359-17.44 8.96-25.057 13.748l-21.488-75.002c3.892-2.5 9.685-6.048 17.141-10.136 35.528-19.478 73.936-32.093 114.156-37.495 5.474-.735 9.315-5.769 8.58-11.242-.735-5.475-5.774-9.315-11.242-8.58-42.669 5.731-83.415 19.115-121.109 39.78-15.812 8.669-24.659 15.076-25.028 15.345-3.395 2.472-4.884 6.802-3.728 10.839l8.617 30.083-62.955 33.317c-6.934 3.67-6.96 13.956-.038 17.657l32.091 17.161-12.278 48.455c-2.097 8.27 6.998 15.341 14.505 11.223l5.969-3.276v239.258h-35.571c-5.522 0-10 4.478-10 10s4.478 10 10 10h492c5.522 0 10-4.478 10-10s-4.478-10-10-10zm-55.57 0h-22.47v-262.568l22.47 12.333zm-8.302-344.129 42.581 22.536-22.415 11.986c-4.053 2.168-6.106 6.819-4.978 11.274l8.554 33.757-.581-.319c-.017-.009-.031-.022-.048-.031l-42.47-23.311c-.022-.012-.046-.02-.068-.032l-6.805-3.735c5.351 1.955 11.533-.979 13.146-6.593zm-302.024 31.016c37.127-17.866 78.6-27.311 119.935-27.311s82.808 9.444 119.935 27.311c6.497 3.127 12.613 6.397 18.317 9.782l-3.785 13.601c-1.245 4.472.752 9.213 4.822 11.447l8.632 4.738v273.545h-295.92v-273.545l8.631-4.737c4.068-2.233 6.065-6.972 4.823-11.443l-3.775-13.59c5.698-3.372 11.837-6.646 18.385-9.798zm-104.812-8.48 42.609-22.55 13.045 45.538c1.613 5.632 7.778 8.54 13.158 6.601l-6.811 3.738c-.021.011-.044.019-.065.03l-42.47 23.311c-.017.009-.031.021-.048.031l-.581.319 8.554-33.757c1.129-4.455-.925-9.106-4.978-11.274zm34.278 71.358 22.47-12.333v262.568h-22.47z"/><path d="m245.66 28.33c2.066 5.044 8.036 7.491 13.06 5.41 5.033-2.084 7.495-8.027 5.41-13.061-2.086-5.035-8.032-7.486-13.061-5.409-5.026 2.077-7.503 8.037-5.409 13.06z"/></g></g></svg>