<svg id="Capa_1" enable-background="new 0 0 512 512" height="512" viewBox="0 0 512 512" width="512" xmlns="http://www.w3.org/2000/svg"><g><path d="m504.5 256.5c-4.143 0-7.5 3.358-7.5 7.5v88.67h-482v-234.67c0-4.142-3.357-7.5-7.5-7.5s-7.5 3.358-7.5 7.5v242.17 20.87c0 15.164 12.336 27.5 27.5 27.5h193.761l-6.923 21.535h-11.083c-18.626-.39-35.888 16.223-35.435 35.436 0 9.649 7.851 17.5 17.5 17.5h141.36c9.649 0 17.5-7.851 17.5-17.5 0-5.277-1.139-10.36-3.385-15.107-5.789-12.345-18.368-20.324-32.05-20.329h-11.084l-6.922-21.535h193.761c15.164 0 27.5-12.336 27.5-27.5v-20.87-96.17c0-4.142-3.357-7.5-7.5-7.5zm-177.285 200.274c.005.009.01.019.014.028 1.295 2.731 1.951 5.661 1.951 8.708 0 1.378-1.121 2.5-2.5 2.5h-141.36c-1.379 0-2.5-1.122-2.5-2.5.328-10.661 8.414-20.426 20.435-20.436h105.488c7.89.003 15.141 4.595 18.472 11.7zm-45.311-26.699h-51.812l6.923-21.535h37.967zm202.596-36.535c-125.356 0-331.842 0-457 0-6.893 0-12.5-5.607-12.5-12.5v-13.37h482v13.37c0 6.893-5.607 12.5-12.5 12.5z"/><path d="m484.5 28.99h-457c-15.164 0-27.5 12.336-27.5 27.5v26.51c0 4.142 3.357 7.5 7.5 7.5s7.5-3.358 7.5-7.5v-26.51c0-6.893 5.607-12.5 12.5-12.5h457c6.893 0 12.5 5.607 12.5 12.5v172.51c0 4.142 3.357 7.5 7.5 7.5s7.5-3.358 7.5-7.5v-172.51c0-15.164-12.336-27.5-27.5-27.5z"/><path d="m146 91.5c0-9.649-7.851-17.5-17.5-17.5h-47c-9.649 0-17.5 7.851-17.5 17.5v186.5h-6.5c-6.893 0-12.5 5.607-12.5 12.5v20c0 6.893 5.607 12.5 12.5 12.5h279.5c4.143 0 7.5-3.358 7.5-7.5s-3.357-7.5-7.5-7.5h-277v-15h11.5 67 313.5v15h-80c-4.143 0-7.5 3.358-7.5 7.5s3.357 7.5 7.5 7.5h82.5c6.893 0 12.5-5.607 12.5-12.5v-20c0-6.893-5.607-12.5-12.5-12.5h-15.5v-164.5c0-9.649-7.851-17.5-17.5-17.5l-49.5.2v-4.7c0-9.649-7.851-17.5-17.5-17.5h-47c-3.718 0-7.162 1.174-10 3.159-2.838-1.985-6.282-3.159-10-3.159h-72c-9.649 0-17.5 7.851-17.5 17.5v28.7h-52zm67 26.5h77v35h-21c-4.143 0-7.5 3.358-7.5 7.5s3.357 7.5 7.5 7.5h21v61h-77v-61h21c4.143 0 7.5-3.358 7.5-7.5s-3.357-7.5-7.5-7.5h-21zm211 130h-52v-107h52zm-345-28h52v25h-52zm67 40h52v18h-52zm67-16h77v34h-77zm92-42h52v76h-52zm52-15h-52v-46h52zm-159 58h-52v-77h52zm-67-40h-52v-87h52zm-49.5-116h47c1.379 0 2.5 1.122 2.5 2.5v11.5h-52v-11.5c0-1.378 1.121-2.5 2.5-2.5zm-2.5 189v-18h52v18zm293 0v-15h52v15zm2.5-167h47c1.379 0 2.5 1.122 2.5 2.5v12.5h-52v-12.5c0-1.378 1.121-2.5 2.5-2.5zm-67-22h47c1.379 0 2.5 1.122 2.5 2.5v22 12.5h-52v-34.5c0-1.378 1.121-2.5 2.5-2.5zm-92 0h72c1.379 0 2.5 1.122 2.5 2.5v11.5h-77v-11.5c0-1.378 1.121-2.5 2.5-2.5zm-67 46h47c1.379 0 2.5 1.122 2.5 2.5v15.5h-52v-15.5c0-1.378 1.121-2.5 2.5-2.5z"/></g></svg>