<?xml version="1.0" encoding="iso-8859-1"?>
<!-- Generator: Adobe Illustrator 19.0.0, SVG Export Plug-In . SVG Version: 6.00 Build 0)  -->
<svg version="1.1" id="Capa_1" xmlns="http://www.w3.org/2000/svg" xmlns:xlink="http://www.w3.org/1999/xlink" x="0px" y="0px"
	 viewBox="0 0 512.001 512.001" style="enable-background:new 0 0 512.001 512.001;" xml:space="preserve">
<g>
	<g>
		<path d="M132.784,59.014H34.765c-9.865,0-17.891,8.026-17.891,17.891v98.019c0,9.865,8.025,17.891,17.891,17.891h98.019
			c9.865,0,17.891-8.026,17.891-17.891v-98.02C150.674,67.04,142.648,59.014,132.784,59.014z M135.675,174.923L135.675,174.923
			c-0.001,1.594-1.298,2.891-2.892,2.891H34.765c-1.594,0-2.891-1.297-2.891-2.891V76.904c0-1.594,1.297-2.891,2.891-2.891h98.019
			c1.594,0,2.891,1.297,2.891,2.891V174.923z"/>
	</g>
</g>
<g>
	<g>
		<path d="M305.01,59.014h-98.02c-9.865,0-17.891,8.026-17.891,17.891v98.019c0,9.865,8.025,17.891,17.891,17.891h98.02
			c9.865,0,17.891-8.026,17.891-17.891v-98.02C322.901,67.04,314.875,59.014,305.01,59.014z M307.901,174.923
			c0,1.594-1.297,2.891-2.891,2.891h-98.02c-1.594,0-2.891-1.297-2.891-2.891V76.904c0-1.594,1.297-2.891,2.891-2.891h98.02
			c1.594,0,2.891,1.297,2.891,2.891V174.923z"/>
	</g>
</g>
<g>
	<g>
		<path d="M487.627,121.191c4.143,0,7.5-3.358,7.5-7.5V76.904c0-9.865-8.025-17.891-17.891-17.891h-98.019
			c-9.865,0-17.891,8.026-17.891,17.891v98.019c0,9.865,8.025,17.891,17.891,17.891h98.019c9.865,0,17.891-8.026,17.891-17.891
			v-30.614c0-4.142-3.357-7.5-7.5-7.5s-7.5,3.358-7.5,7.5v30.614c0,1.594-1.297,2.891-2.891,2.891h-98.019
			c-1.594,0-2.891-1.297-2.891-2.891V76.904c0-1.594,1.297-2.891,2.891-2.891h98.019c1.594,0,2.891,1.297,2.891,2.891v36.787
			C480.127,117.833,483.484,121.191,487.627,121.191z"/>
	</g>
</g>
<g>
	<g>
		<path d="M132.784,218.607H34.765c-9.865,0-17.891,8.026-17.891,17.891v98.019c0,9.865,8.025,17.891,17.891,17.891h98.019
			c9.865,0,17.891-8.026,17.891-17.891v-98.019C150.674,226.633,142.648,218.607,132.784,218.607z M135.675,334.516L135.675,334.516
			c-0.001,1.594-1.298,2.891-2.892,2.891H34.765c-1.594,0-2.891-1.297-2.891-2.891v-98.019c0-1.594,1.297-2.891,2.891-2.891h98.019
			c1.594,0,2.891,1.297,2.891,2.891V334.516z"/>
	</g>
</g>
<g>
	<g>
		<path d="M305.01,218.607h-98.02c-9.865,0-17.891,8.026-17.891,17.891v48.527c0,4.142,3.357,7.5,7.5,7.5s7.5-3.358,7.5-7.5v-48.527
			c0-1.594,1.297-2.891,2.891-2.891h98.02c1.594,0,2.891,1.297,2.891,2.891v98.019c0,1.594-1.297,2.891-2.891,2.891h-98.02
			c-1.594,0-2.891-1.297-2.891-2.891v-18.874c0-4.142-3.357-7.5-7.5-7.5s-7.5,3.358-7.5,7.5v18.874
			c0,9.865,8.025,17.891,17.891,17.891h98.02c9.865,0,17.891-8.026,17.891-17.891v-98.019
			C322.901,226.633,314.875,218.607,305.01,218.607z"/>
	</g>
</g>
<g>
	<g>
		<path d="M477.235,218.607h-98.019c-9.865,0-17.891,8.026-17.891,17.891v98.019c0,9.865,8.025,17.891,17.891,17.891h98.019
			c9.865,0,17.891-8.026,17.891-17.891v-98.019C495.127,226.633,487.102,218.607,477.235,218.607z M477.236,337.407h-98.019
			c-1.594,0-2.891-1.297-2.891-2.891v-98.019c0-1.594,1.297-2.891,2.891-2.891h98.019c1.594,0,2.891,1.297,2.891,2.891v98.019h0
			C480.127,336.11,478.83,337.407,477.236,337.407z"/>
	</g>
</g>
<g>
	<g>
		<path d="M132.784,378.2H34.765c-9.865,0-17.891,8.026-17.891,17.891v98.019c0,9.865,8.025,17.891,17.891,17.891h98.019
			c9.865,0,17.891-8.026,17.891-17.891v-98.019C150.674,386.226,142.648,378.2,132.784,378.2z M135.675,494.109L135.675,494.109
			c-0.001,1.594-1.298,2.891-2.892,2.891H34.765c-1.594,0-2.891-1.297-2.891-2.891V396.09c0-1.594,1.297-2.891,2.891-2.891h98.019
			c1.594,0,2.891,1.297,2.891,2.891V494.109z"/>
	</g>
</g>
<g>
	<g>
		<path d="M305.01,378.2h-98.02c-9.865,0-17.891,8.026-17.891,17.891v98.019c0,9.865,8.025,17.891,17.891,17.891h54.701
			c4.143,0,7.5-3.358,7.5-7.5c0-4.142-3.357-7.5-7.5-7.5H206.99c-1.594,0-2.891-1.297-2.891-2.891v-98.019
			c0-1.594,1.297-2.891,2.891-2.891h98.02c1.594,0,2.891,1.297,2.891,2.891v98.019c0,1.594-1.297,2.891-2.891,2.891H292.31
			c-4.143,0-7.5,3.358-7.5,7.5c0,4.142,3.357,7.5,7.5,7.5h12.701c9.865,0,17.891-8.026,17.891-17.891v-98.019
			C322.901,386.226,314.875,378.2,305.01,378.2z"/>
	</g>
</g>
<g>
	<g>
		<path d="M477.235,378.2h-98.019c-9.865,0-17.891,8.026-17.891,17.891v98.019c0,9.865,8.025,17.891,17.891,17.891h98.019
			c9.865,0,17.891-8.026,17.891-17.891v-98.019C495.127,386.226,487.102,378.2,477.235,378.2z M477.236,497h-98.019
			c-1.594,0-2.891-1.297-2.891-2.891V396.09c0-1.594,1.297-2.891,2.891-2.891h98.019c1.594,0,2.891,1.297,2.891,2.891v98.019h0
			C480.127,495.703,478.83,497,477.236,497z"/>
	</g>
</g>
<g>
	<g>
		<path d="M214.393,0c-4.143,0-7.5,3.358-7.5,7.5v1.811c0,4.142,3.357,7.5,7.5,7.5s7.5-3.358,7.5-7.5V7.5
			C221.893,3.358,218.536,0,214.393,0z"/>
	</g>
</g>
<g>
	<g>
		<path d="M256,0c-4.143,0-7.5,3.358-7.5,7.5v1.811c0,4.142,3.357,7.5,7.5,7.5s7.5-3.358,7.5-7.5V7.5C263.5,3.358,260.143,0,256,0z"
			/>
	</g>
</g>
<g>
	<g>
		<path d="M297.607,0c-4.143,0-7.5,3.358-7.5,7.5v1.811c0,4.142,3.358,7.5,7.5,7.5c4.143,0,7.5-3.358,7.5-7.5V7.5
			C305.107,3.358,301.75,0,297.607,0z"/>
	</g>
</g>
<g>
</g>
<g>
</g>
<g>
</g>
<g>
</g>
<g>
</g>
<g>
</g>
<g>
</g>
<g>
</g>
<g>
</g>
<g>
</g>
<g>
</g>
<g>
</g>
<g>
</g>
<g>
</g>
<g>
</g>
</svg>
